<svg width="234" height="112" viewBox="0 0 234 112" fill="none" xmlns="http://www.w3.org/2000/svg">
<g clip-path="url(#clip0_1043_885)">
<path d="M99.8896 58.3473C80.8233 44.9703 83.6127 22.0091 94.396 10.469C105.86 -1.79397 125.878 -2.36374 138.107 9.0063C149.214 19.3388 154.452 44.1199 134.127 58.3813C140.446 60.5074 146.654 62.5909 152.87 64.6744C166.35 69.2071 173.042 78.5022 173.051 92.6956C173.051 95.9867 173.365 99.3118 172.94 102.552C172.643 104.831 171.639 107.17 170.389 109.126C169.249 110.903 167.132 111.048 165.304 109.814C163.509 108.615 163.211 106.914 163.73 104.797C165.542 97.4664 165.686 90.0763 162.922 82.9753C161.085 78.2555 157.386 75.0325 152.573 73.3827C143.677 70.3212 134.774 67.2597 125.785 64.4703C119.245 62.4378 112.637 62.863 106.14 65.0401C98.0357 67.7529 89.8973 70.3892 81.8183 73.1615C74.037 75.8318 69.2152 82.7287 69.1897 90.9607C69.1897 93.9882 69.0451 97.0242 69.1897 100.043C69.2577 101.633 69.7169 103.215 70.1336 104.771C70.7034 106.923 70.4313 108.794 68.3818 109.95C66.3833 111.073 64.3933 110.733 63.0837 108.879C62.1738 107.586 61.2383 105.928 61.2298 104.431C61.1958 97.713 60.6175 90.8247 61.8676 84.302C63.696 74.7008 70.2102 68.4162 79.4712 65.2102C86.1639 62.897 92.8907 60.6945 99.8981 58.3473H99.8896ZM94.0983 32.078C94.1323 44.9278 103.963 54.6991 116.881 54.7416C129.858 54.7756 139.876 44.8257 139.834 31.942C139.791 19.1177 129.926 9.34646 117 9.29544C103.98 9.24441 94.0643 19.1177 94.0983 32.0865V32.078Z" fill="#009CB2" stroke="#009CB2" stroke-width="1.70083" stroke-miterlimit="10"/>
<path d="M171.282 57.6077C157.65 46.4332 158.781 28.7956 168.101 19.0074C178.094 8.51327 194.49 8.07105 204.958 18.0039C214.704 27.2564 217.289 45.2597 202.62 57.8288C207.39 59.4361 212.008 60.9838 216.609 62.5486C227.358 66.2054 233.022 74.0207 233.124 85.3567C233.15 87.9505 233.175 90.5527 233.116 93.1465C232.962 99.4055 229.187 103.139 222.97 103.147C210.852 103.173 198.733 103.164 186.623 103.147C183.23 103.147 181.444 101.736 181.385 99.0909C181.325 96.3526 183.171 94.8473 186.691 94.8388C198.461 94.8303 210.231 94.7878 222.001 94.8728C224.11 94.8898 225.003 94.3116 224.875 92.109C224.696 88.9199 224.918 85.6884 224.611 82.5163C224.127 77.4904 221.541 73.3489 216.89 71.631C208.241 68.425 199.405 65.6441 190.51 63.2119C185.271 61.7832 180.067 63.5861 175.066 65.3464C172.906 66.1033 170.967 66.1373 169.479 64.1474C167.948 62.0979 168.569 59.9548 171.29 57.5822L171.282 57.6077ZM204.431 36.764C204.397 27.0778 196.616 19.1605 187.066 19.0924C177.507 19.0244 169.454 27.1544 169.479 36.8491C169.505 46.6033 177.456 54.5292 187.151 54.4441C196.743 54.3591 204.474 46.4588 204.44 36.764H204.431Z" fill="#009CB2" stroke="#009CB2" stroke-width="1.70083" stroke-miterlimit="10"/>
<path d="M31.5164 57.7945C24.2964 51.8161 20.5631 44.3919 21.0904 35.199C21.5071 28.064 24.475 22.009 29.8836 17.2807C40.5733 7.92618 56.4676 8.7936 66.1198 19.2367C75.5424 29.4247 75.8655 46.3054 62.361 58.1091C62.7692 58.2027 63.2029 58.1687 63.458 58.3728C65.3714 59.878 65.7881 61.8254 64.5635 63.8749C63.3049 65.984 61.3149 66.2901 59.1294 65.3717C53.5507 63.0245 47.7508 62.2506 41.8575 63.5178C37.903 64.3597 34.0677 65.7799 30.1983 67.0045C26.6606 68.127 23.1484 69.3431 19.6191 70.5082C13.0029 72.7107 9.32912 77.6601 9.16754 84.6931C9.10801 87.2018 9.24408 89.719 9.12502 92.2193C9.03148 94.2432 9.77134 94.9066 11.8293 94.8895C23.3354 94.796 34.8501 94.847 46.3562 94.847C47.2236 94.847 48.108 94.7705 48.9414 94.9321C51.1695 95.3658 52.5217 96.7775 52.4876 99.0566C52.4536 101.336 51.0845 102.705 48.8394 103.105C48.1675 103.224 47.4617 103.156 46.7644 103.156C34.9946 103.156 23.2249 103.164 11.4552 103.156C4.59231 103.156 0.901516 99.4648 0.867499 92.5509C0.850491 89.1748 0.722929 85.7816 1.03758 82.431C1.93902 73.0169 6.95647 66.5367 15.7327 63.1436C20.8012 61.1876 26.0228 59.6314 31.4824 57.7945H31.5164ZM46.9089 54.4438C56.4931 54.4949 64.4275 46.654 64.5295 37.0274C64.6316 27.3071 56.7142 19.1516 47.1045 19.0751C37.4948 18.9986 29.5009 27.0775 29.518 36.8318C29.535 46.518 37.3078 54.3928 46.9089 54.4438Z" fill="#009CB2" stroke="#009CB2" stroke-width="1.70083" stroke-miterlimit="10"/>
</g>
<defs>
<clipPath id="clip0_1043_885">
<rect width="234" height="111.455" fill="white"/>
</clipPath>
</defs>
</svg>
