<svg width="228" height="226" viewBox="0 0 228 226" fill="none" xmlns="http://www.w3.org/2000/svg">
<g clip-path="url(#clip0_1043_886)">
<path d="M41.5676 69.6368C40.3298 69.275 39.5235 68.418 38.8379 67.3642C33.3087 58.9592 27.7668 50.567 22.2248 42.1684C19.8316 38.5436 18.1112 34.6458 17.3177 30.3481C16.6512 26.7361 16.9432 23.1874 17.9525 19.696C19.4507 14.5159 22.3581 10.2563 26.5797 6.91079C29.7093 4.43502 33.2325 2.74641 37.1493 2.02907C45.8463 0.442034 53.4641 2.70832 59.8059 8.85333C63.8052 12.732 66.154 17.5312 66.9793 23.0668C67.8553 28.9389 66.4016 34.3284 63.6021 39.4196C61.4246 43.3872 58.733 47.0311 56.2636 50.8146C52.6515 56.3438 48.9886 61.8349 45.3638 67.3578C44.6782 68.4053 43.872 69.2686 42.6278 69.6241H41.5613L41.5676 69.6368ZM42.012 4.47311C41.0915 4.58102 40.0504 4.56198 39.0157 4.70799C35.4417 5.22854 32.1787 6.51086 29.2459 8.6121C25.2846 11.4497 22.5169 15.1951 21.006 19.8229C19.9268 23.1367 19.5967 26.5202 20.2569 29.98C21.0314 34.0555 22.8025 37.693 25.0752 41.1146C27.7033 45.0885 30.3251 49.0688 32.9469 53.0428C35.8289 57.4039 38.7046 61.7715 41.593 66.1326C42.0628 66.8436 42.139 66.8436 42.6278 66.1263C42.6659 66.0692 42.704 66.0184 42.742 65.9613C48.3348 57.4928 53.9338 49.0307 59.5012 40.5496C61.1199 38.0802 62.434 35.4648 63.3164 32.6144C64.6114 28.412 64.6114 24.2285 63.291 20.0642C60.3455 10.7768 51.8453 4.53024 42.0247 4.46676L42.012 4.47311Z" fill="#009CB2" stroke="#009CB2" stroke-width="2.53926" stroke-miterlimit="10"/>
<path d="M51.2993 16.1528H32.4834V34.9687H51.2993V16.1528Z" fill="white"/>
<path d="M195.974 89.8552C194.977 89.5632 194.329 88.8713 193.777 88.0333C189.333 81.2789 184.871 74.5308 180.421 67.7764C178.497 64.8626 177.113 61.7266 176.472 58.2732C175.932 55.3721 176.167 52.5154 176.98 49.7096C178.186 45.5452 180.522 42.1235 183.918 39.4319C186.432 37.4386 189.264 36.0864 192.419 35.5087C199.408 34.2328 205.534 36.0547 210.631 40.9935C213.85 44.1105 215.735 47.9702 216.402 52.4202C217.107 57.1369 215.938 61.4727 213.685 65.5672C211.933 68.754 209.768 71.6868 207.781 74.7276C204.88 79.1713 201.934 83.5896 199.021 88.027C198.468 88.8713 197.821 89.5632 196.824 89.8489H195.967L195.974 89.8552ZM196.329 37.464C195.593 37.5529 194.748 37.5338 193.917 37.6544C191.041 38.0734 188.419 39.1018 186.064 40.7968C182.877 43.0821 180.649 46.0911 179.437 49.8111C178.567 52.471 178.3 55.1943 178.834 57.9812C179.456 61.2632 180.884 64.177 182.706 66.9321C184.82 70.1252 186.927 73.3247 189.035 76.5241C191.352 80.0346 193.669 83.5388 195.986 87.0494C196.367 87.6207 196.424 87.6207 196.818 87.0494C196.85 87.0049 196.881 86.9605 196.907 86.916C201.401 80.1045 205.908 73.3056 210.384 66.4814C211.685 64.4944 212.745 62.3931 213.45 60.1015C214.491 56.7243 214.491 53.3597 213.431 50.0079C211.063 42.5425 204.226 37.5211 196.335 37.4703L196.329 37.464Z" fill="#009CB2" stroke="#009CB2" stroke-width="2.53926" stroke-miterlimit="10"/>
<path d="M203.801 46.8535H188.673V61.9811H203.801V46.8535Z" fill="white"/>
<path d="M159.51 126.713C163.046 126.713 166.277 126.713 169.515 126.713C177.437 126.713 185.353 126.713 193.276 126.713C197.262 126.713 200.563 128.255 202.861 131.518C210.574 142.45 218.306 153.369 225.804 164.446C227.092 166.351 227.797 169.004 227.854 171.34C228.083 180.443 227.987 189.559 227.937 198.669C227.898 205.474 223.029 210.305 216.224 210.375C212.504 210.413 208.784 210.381 204.95 210.381C201.846 220.304 195.358 225.896 184.725 225.503C176.523 225.198 170.543 219.802 167.407 210.477H109.861C106.814 220.208 100.415 225.795 89.8834 225.515C81.6372 225.293 75.5683 219.904 72.3117 210.381C67.5506 210.381 62.726 210.388 57.9078 210.381C52.2579 210.369 49.2489 207.372 49.2489 201.742C49.2426 175.841 49.2489 149.934 49.2489 124.034C49.2489 118.225 52.1881 115.312 58.0474 115.312C88.6963 115.312 119.345 115.312 149.994 115.312C156.825 115.312 159.453 117.921 159.51 124.758C159.51 125.303 159.51 125.849 159.51 126.719V126.713ZM72.3117 202.7C75.0097 193.667 80.7929 188.353 90.296 187.611C94.1938 187.306 97.8186 188.404 101.139 190.467C105.735 193.324 108.426 197.564 109.728 202.592H151.784V123.056H57.0063V202.7H72.3117ZM204.874 202.776C208.568 202.776 212.13 202.795 215.691 202.776C218.954 202.751 220.331 201.405 220.338 198.161C220.363 189.369 220.357 180.577 220.338 171.791C220.331 168.75 220.109 168.56 217.1 168.56C203.325 168.56 189.543 168.56 175.767 168.56C172.498 168.56 170.956 167.277 170.937 164.383C170.886 157.019 170.892 149.649 170.937 142.285C170.956 139.619 172.409 138.209 175.082 138.152C177.85 138.095 180.624 138.139 183.398 138.139C188.184 138.139 192.977 138.139 198.03 138.139C196.748 135.486 195.123 134.267 192.349 134.292C182.135 134.4 171.92 134.331 161.706 134.343C161.021 134.343 160.341 134.426 159.681 134.47V202.706H167.375C170.911 192.657 177.399 187.503 186.331 187.585C195.066 187.661 201.496 192.886 204.867 202.795L204.874 202.776ZM214.123 160.859C212.053 157.889 210.225 155.235 208.372 152.607C206.778 150.347 205.597 147.255 203.414 146.113C201.23 144.97 198.024 145.751 195.263 145.738C189.752 145.719 184.242 145.738 178.669 145.738V160.866H214.129L214.123 160.859ZM90.9816 195.184C84.7795 195.228 79.6883 200.339 79.6756 206.547C79.6629 212.857 84.8239 217.999 91.1594 217.98C97.3361 217.961 102.472 212.8 102.465 206.617C102.459 200.288 97.2917 195.146 90.9816 195.19V195.184ZM186.064 217.98C192.247 218.031 197.453 212.94 197.523 206.763C197.586 200.427 192.482 195.216 186.191 195.184C179.976 195.159 174.822 200.205 174.733 206.395C174.644 212.711 179.741 217.923 186.064 217.974V217.98Z" fill="#009CB2"/>
<path d="M41.5232 138.286V145.612H0V138.286H41.5232Z" fill="#009CB2"/>
<path d="M41.4342 168.502H7.60498V161.1H41.4406V168.502H41.4342Z" fill="#009CB2"/>
<path d="M41.4979 191.255H15.2039V183.917H41.5042V191.255H41.4979Z" fill="#009CB2"/>
<path d="M173.571 92.5729V84.9996C175.907 84.8345 178.148 84.6821 180.624 84.5107C180.909 86.9865 181.182 89.3607 181.487 92.0142C178.783 92.2047 176.313 92.3824 173.571 92.5729Z" fill="#009CB2"/>
<path d="M102.554 62.4827H110.286V69.6942C107.855 69.8021 105.601 69.9036 103.068 70.0179C102.897 67.5421 102.738 65.1552 102.554 62.4827Z" fill="#009CB2"/>
<path d="M140.891 72.6715C139.348 74.7854 137.958 76.6962 136.447 78.7594C134.479 77.4961 132.581 76.2772 130.499 74.9441C131.68 72.7667 132.835 70.6401 134.124 68.2659C136.441 69.7767 138.605 71.1797 140.891 72.6715Z" fill="#009CB2"/>
<path d="M166.366 84.5231C166.023 87.1322 165.725 89.4556 165.382 92.0583C162.665 91.4997 160.164 90.9855 157.421 90.4205C158.151 87.8431 158.812 85.5324 159.497 83.1074C161.84 83.5899 163.96 84.0279 166.36 84.5231H166.366Z" fill="#009CB2"/>
<path d="M88.1502 71.2555C87.8011 68.6464 87.4964 66.323 87.1599 63.7647C89.7753 63.4727 92.1686 63.1997 94.8412 62.9014C95.0633 65.4914 95.2665 67.8783 95.4823 70.4493C93.0002 70.7223 90.7593 70.9699 88.1566 71.2555H88.1502Z" fill="#009CB2"/>
<path d="M152.914 80.6573C151.841 82.9299 150.826 85.101 149.677 87.5386C147.277 86.1674 145.061 84.9042 142.605 83.5012C144.09 81.2921 145.423 79.3051 146.845 77.1848C148.889 78.3529 150.826 79.4638 152.914 80.6573Z" fill="#009CB2"/>
<path d="M79.4344 64.9897C79.9169 67.6687 80.3232 69.9603 80.7612 72.4107C78.3489 72.944 76.1397 73.4328 73.6132 73.9914C73.0228 71.5601 72.4451 69.1859 71.8167 66.6085C74.4575 66.0499 76.8126 65.5484 79.4344 64.9897Z" fill="#009CB2"/>
<path d="M59.3171 78.1113C58.4601 75.5848 57.7047 73.3629 56.8794 70.9443C59.3615 70.1508 61.6659 69.4144 64.2305 68.5891C64.9542 71.0268 65.6398 73.3312 66.3826 75.8387C64.0084 76.6005 61.7802 77.3178 59.3171 78.105V78.1113Z" fill="#009CB2"/>
<path d="M118.621 62.9072C121.383 63.6246 123.859 64.2721 126.512 64.964C125.668 67.4779 124.925 69.6997 124.119 72.1057C121.891 71.5534 119.783 71.0265 117.345 70.4234C117.758 68.0048 118.171 65.5861 118.628 62.9072H118.621Z" fill="#009CB2"/>
</g>
<defs>
<clipPath id="clip0_1043_886">
<rect width="228" height="225.251" fill="white" transform="translate(0 0.277344)"/>
</clipPath>
</defs>
</svg>
