<svg width="97" height="93" viewBox="0 0 97 93" fill="none" xmlns="http://www.w3.org/2000/svg">
<path d="M1.8991 44.1703L0.0549845 37.5173C-0.139583 36.8152 0.194693 36.0767 0.860398 35.7381L8.29838 31.9556C8.3688 31.1576 8.47871 30.3576 8.62658 29.5626L2.45262 24.0461C1.90043 23.5526 1.77534 22.7557 2.15119 22.1261L7.68411 12.8638C8.06034 12.2342 8.83766 11.9407 9.55671 12.1559L17.586 14.5674C18.2209 14.0484 18.8855 13.5556 19.5732 13.0934L19.238 4.97618C19.208 4.24956 19.7031 3.59978 20.4301 3.41143L31.1246 0.642111C31.8517 0.453761 32.6163 0.777276 32.9665 1.42045L36.8816 8.61206C37.7073 8.6801 38.5355 8.7861 39.358 8.92934L45.0678 2.96412C45.5782 2.43061 46.403 2.30957 47.0549 2.67288L56.6416 8.01858C57.2933 8.38189 57.5976 9.13291 57.3747 9.82689L54.8833 17.5868C55.4253 18.2067 55.934 18.8464 56.4051 19.5002L64.8068 19.1815C65.5594 19.1571 66.2307 19.6312 66.4252 20.3332L69.2915 30.6659C69.4865 31.3681 69.1518 32.107 68.4857 32.4456L61.0451 36.2267C60.9838 36.9387 60.8896 37.6528 60.7642 38.3598C60.614 39.2066 59.7822 39.7747 58.9051 39.6302C58.0287 39.4848 57.44 38.6808 57.5904 37.8338C57.7464 36.9548 57.8466 36.0633 57.8884 35.1843C57.9146 34.6328 58.2414 34.136 58.7473 33.8789L65.8478 30.2707L63.6476 22.3394L55.6316 22.6435C55.0633 22.6679 54.523 22.3943 54.2146 21.931C53.5378 20.9152 52.7537 19.9287 51.8841 18.9985C51.503 18.5909 51.3726 18.0193 51.5411 17.4948L53.9179 10.0924L46.5587 5.98872L41.1112 11.6801C40.7249 12.084 40.1469 12.2606 39.5899 12.1447C38.3337 11.8831 37.0569 11.7199 35.7952 11.659C35.2265 11.6319 34.7151 11.3164 34.4501 10.8297L30.7154 3.96933L22.5071 6.09491L22.827 13.8387C22.8497 14.3887 22.5699 14.9092 22.0912 15.2078C21.0119 15.8807 19.9895 16.6392 19.0524 17.4625C18.6302 17.8333 18.0366 17.9608 17.4913 17.797L9.82986 15.4961L5.58335 22.6052L11.4737 27.8685C11.8917 28.2419 12.0745 28.8007 11.9545 29.3385C11.6838 30.552 11.5149 31.7855 11.4521 33.005C11.4238 33.5542 11.0975 34.0481 10.5939 34.3042L3.49835 37.9125L5.0099 43.3651C5.23997 44.195 4.73011 45.048 3.87097 45.2705C3.73145 45.3066 3.59118 45.3238 3.45355 45.3238C2.74248 45.3238 2.09177 44.8652 1.8991 44.1703ZM50.3673 38.5168C50.4673 38.5348 50.5669 38.5436 50.6653 38.5436C51.4251 38.5436 52.1013 38.0216 52.2463 37.2739C52.7412 34.7196 52.6379 32.1457 51.9392 29.6235C50.704 25.1665 47.7466 21.4413 43.6113 19.134C39.4766 16.827 34.6587 16.2136 30.0453 17.4071C21.6256 19.5874 16.0813 27.2475 16.8622 35.6211C16.9419 36.4769 17.7261 37.1091 18.6103 37.0309C19.496 36.9537 20.1491 36.1976 20.0694 35.3416C19.4293 28.4787 23.9756 22.1999 30.8784 20.4123C34.661 19.4335 38.6106 19.9367 42.0009 21.8281C45.3909 23.7197 47.8157 26.7738 48.8284 30.4277C49.4016 32.4969 49.4865 34.6077 49.0808 36.7012C48.9172 37.5459 49.4933 38.3587 50.3673 38.5168ZM59.8792 3.76135H78.0651C82.498 3.76135 86.1046 7.24574 86.1046 11.5286V15.9473C86.1046 16.8065 86.8254 17.503 87.7147 17.503C88.604 17.503 89.325 16.8065 89.325 15.9473V11.5286C89.325 5.53005 84.2738 0.649814 78.0651 0.649814H59.8792C58.9899 0.649814 58.2692 1.34636 58.2692 2.20558C58.2692 3.0648 58.9899 3.76135 59.8792 3.76135ZM81.0855 17.503C81.9749 17.503 82.6958 16.8065 82.6958 15.9473V11.5286C82.6958 9.06175 80.6186 7.05464 78.0651 7.05464H66.5084C65.6191 7.05464 64.8983 7.75118 64.8983 8.6104C64.8983 9.46963 65.6191 10.1662 66.5084 10.1662H78.0651C78.8426 10.1662 79.4755 10.7774 79.4755 11.5286V15.9473C79.4755 16.8065 80.1964 17.503 81.0855 17.503ZM9.34714 85.7272V72.8294C9.34714 71.9701 10.0681 71.2736 10.9572 71.2736H24.3123C25.2016 71.2736 25.9226 71.9701 25.9226 72.8294V85.7272C25.9226 86.5865 25.2016 87.283 24.3123 87.283H10.9574C10.0681 87.283 9.34714 86.5865 9.34714 85.7272ZM12.5675 84.1715H22.7022V74.3851H12.5675V84.1715ZM71.9384 85.7272V72.8294C71.9384 71.9701 72.6594 71.2736 73.5487 71.2736H86.904C87.7933 71.2736 88.514 71.9701 88.514 72.8294V85.7272C88.514 86.5865 87.7933 87.283 86.904 87.283H73.5487C72.6592 87.283 71.9384 86.5865 71.9384 85.7272ZM75.1587 84.1715H85.2939V74.3851H75.1587V84.1715ZM96.9989 67.5444V91.0122C96.9989 91.8714 96.2781 92.568 95.3888 92.568H2.47237C1.58305 92.568 0.862297 91.8714 0.862297 91.0122V67.5444V49.5435C0.862297 48.9467 1.21555 48.4025 1.77173 48.1428L23.8345 37.8377C24.3334 37.6051 24.9216 37.6363 25.3909 37.9206C25.8605 38.205 26.1454 38.7028 26.1454 39.2385V47.0639L45.903 37.8379C46.4021 37.605 46.9899 37.636 47.4594 37.9208C47.9288 38.2052 48.2139 38.7032 48.2139 39.2387V47.0639L67.9715 37.8381C68.4702 37.6051 69.0584 37.6361 69.5279 37.921C69.9973 38.2054 70.2824 38.7033 70.2824 39.2389V65.989H73.6536L76.8928 28.1891H76.5862C75.2071 28.1891 74.0853 27.105 74.0853 25.7728V21.2491C74.0853 19.9169 75.2071 18.8328 76.5862 18.8328H91.249C92.6281 18.8328 93.7499 19.9169 93.7499 21.2491V25.7728C93.7499 27.105 92.6281 28.1891 91.249 28.1891H90.9424L94.1815 65.989H95.3886C96.2781 65.9886 96.9989 66.6852 96.9989 67.5444ZM77.3056 25.0774H90.5296V21.9442H77.3056V25.0774ZM76.885 65.9886H90.9504L87.7113 28.1887H80.1241L76.885 65.9886ZM48.2141 65.9886H67.0623V41.7184L48.2141 50.5197V65.9886ZM26.1454 65.9886H44.9936V41.7184L26.1454 50.5197V65.9886ZM4.08262 65.9886H22.9251V41.7186L4.08262 50.5195V65.9886ZM93.7786 69.1002H4.08262V89.4563H93.7786V69.1002ZM30.2108 85.7272V72.8294C30.2108 71.9701 30.9318 71.2736 31.8209 71.2736H45.1762C46.0655 71.2736 46.7865 71.9701 46.7865 72.8294V85.7272C46.7865 86.5865 46.0655 87.283 45.1762 87.283H31.8209C30.9318 87.283 30.2108 86.5865 30.2108 85.7272ZM33.4312 84.1715H43.5661V74.3851H33.4312V84.1715ZM51.0747 85.7272V72.8294C51.0747 71.9701 51.7957 71.2736 52.6848 71.2736H66.0401C66.9294 71.2736 67.6503 71.9701 67.6503 72.8294V85.7272C67.6503 86.5865 66.9294 87.283 66.0401 87.283H52.6848C51.7957 87.283 51.0747 86.5865 51.0747 85.7272ZM54.2951 84.1715H64.43V74.3851H54.2951V84.1715Z" fill="black"/>
</svg>
