<svg width="141" height="117" viewBox="0 0 141 117" fill="none" xmlns="http://www.w3.org/2000/svg">
<path d="M57.4857 72.0975C57.4857 73.2648 56.5062 74.2114 55.2978 74.2114H41.6052C40.3971 74.2114 39.4173 73.2651 39.4173 72.0975C39.4173 70.9299 40.3968 69.9836 41.6052 69.9836H55.2978C56.5062 69.9836 57.4857 70.9299 57.4857 72.0975ZM55.2981 76.7672H41.6055C40.3973 76.7672 39.4176 77.7136 39.4176 78.8811C39.4176 80.0487 40.397 80.995 41.6055 80.995H55.2981C56.5062 80.995 57.486 80.0487 57.486 78.8811C57.486 77.7136 56.5062 76.7672 55.2981 76.7672ZM139.103 99.5709C138.082 100.195 136.73 99.8999 136.085 98.9131L131.117 91.3163L130.466 91.7143C130.461 91.7169 130.458 91.7204 130.453 91.723L108.06 105.398L113.027 112.995C113.673 113.982 113.368 115.288 112.346 115.911C111.984 116.132 111.579 116.238 111.18 116.238C110.455 116.238 109.745 115.889 109.328 115.253L103.192 105.869C102.547 104.882 102.852 103.577 103.873 102.953L103.943 102.91L101.604 98.9096C96.1138 99.1263 91.1989 96.9706 87.6862 92.7812L84.1072 88.5123H63.2733C62.0648 88.5123 61.0853 87.5659 61.0853 86.3984C61.0853 85.2308 62.0648 84.2845 63.2733 84.2845H85.1503H109.277V77.8421L95.5994 60.3286C94.1192 58.4378 93.4913 56.0926 93.8324 53.727C94.1743 51.3587 95.4442 49.2663 97.409 47.8341L103.032 43.7279C103.495 43.3898 104.076 43.2428 104.653 43.3206C105.228 43.398 105.748 43.6934 106.097 44.1414L109.277 48.2153V38.5934C109.277 38.5616 109.283 38.5309 109.285 38.4991V31.2781H81.6203V60.8545C81.6203 62.0218 80.6408 62.9684 79.4324 62.9684H60.6896C59.4815 62.9684 58.5017 62.0221 58.5017 60.8545V31.2781H30.8454V38.5934V41.6216V48.2206L34.0334 44.1406C34.3833 43.6931 34.9026 43.398 35.4774 43.3206C36.0532 43.2428 36.6357 43.3898 37.0985 43.7279L42.7229 47.8354C44.686 49.2663 45.9562 51.3587 46.2978 53.727C46.6392 56.0926 46.011 58.4378 44.5297 60.3305L30.8454 77.8426V84.2847H54.9723C55.8158 84.2847 56.5838 84.7531 56.9469 85.4889C57.31 86.2243 57.2033 87.0957 56.6721 87.7289L52.4361 92.7809C48.9319 96.9706 44.0238 99.1255 38.5187 98.9099L36.1816 102.907L36.2575 102.953C36.7481 103.253 37.0953 103.728 37.223 104.275C37.3508 104.822 37.2483 105.396 36.9379 105.87L30.7936 115.254C30.377 115.889 29.6676 116.238 28.9426 116.238C28.5428 116.238 28.1381 116.132 27.7753 115.91C26.7544 115.286 26.4503 113.98 27.0958 112.994L32.0673 105.4L9.66929 91.7228C9.64598 91.7085 9.62542 91.6912 9.60266 91.6761L9.01173 91.3153L4.03695 98.9136C3.39063 99.8997 2.03904 100.194 1.01842 99.5701C-0.00275167 98.9459 -0.30658 97.6401 0.338918 96.6537L6.48321 87.2697C6.96006 86.5417 7.82137 86.1925 8.65031 86.3096V68.9191C8.65031 63.3857 10.3299 58.5416 13.7841 54.1109L26.4698 37.8845V29.1636C26.4698 28.9665 26.4983 28.7707 26.5545 28.5813L34.4911 1.83041C34.7601 0.923807 35.6181 0.298828 36.5943 0.298828H103.529C104.505 0.298828 105.363 0.923542 105.632 1.82988L113.576 28.5808C113.632 28.77 113.661 28.9663 113.661 29.1636V37.8943L126.337 54.1085C129.793 58.5302 131.473 63.3748 131.473 68.9191V86.3112C131.739 86.2725 132.012 86.2794 132.28 86.3377C132.846 86.4612 133.338 86.7966 133.648 87.2705L139.784 96.6545C140.429 97.6419 140.124 98.9472 139.103 99.5709ZM24.9726 62.7504C24.5426 63.3006 23.8878 63.5905 23.2253 63.5905C22.766 63.5905 22.3031 63.4514 21.9085 63.1634C20.9441 62.4597 20.753 61.1343 21.4813 60.203L26.4698 53.8213V44.8989L17.2773 56.6572C14.3773 60.3766 13.0259 64.274 13.0259 68.9196V88.7661L32.4786 100.645L35.3951 95.6575C35.8237 94.9242 36.6636 94.5067 37.5288 94.5949L37.9563 94.6386C42.3412 95.0246 46.2748 93.422 49.0353 90.122L50.385 88.5123H28.658C27.4498 88.5123 26.47 87.5659 26.47 86.3984V77.1342C26.47 76.6745 26.6252 76.2273 26.9118 75.8606L41.039 57.7821C41.8161 56.7891 42.1443 55.5572 41.9647 54.3109C41.7843 53.062 41.1174 51.9607 40.0864 51.2091L36.2068 48.3756L31.4445 54.4701C31.4413 54.4744 31.4388 54.4789 31.4355 54.4828L24.9726 62.7504ZM77.2447 31.2781H62.8776V58.7406H77.2447V31.2781ZM108.569 27.0505L101.88 4.52691H38.2426L31.5603 27.0503H60.6896H79.4324H108.569V27.0505ZM127.097 68.9194C127.097 64.2647 125.746 60.3681 122.845 56.6566L113.653 44.8986V53.8134L118.642 60.2038C119.37 61.1359 119.178 62.4611 118.213 63.1639C117.819 63.4514 117.356 63.5902 116.897 63.5902C116.234 63.5902 115.579 63.3001 115.149 62.7491L109.759 55.8457C109.746 55.83 109.731 55.8171 109.718 55.8012L103.923 48.3761L100.046 51.2077C99.0134 51.9604 98.3465 53.0617 98.1661 54.3109C97.9865 55.5572 98.3147 56.7894 99.0907 57.781L113.211 75.8614C113.498 76.2281 113.653 76.675 113.653 77.1344V86.2503C113.656 86.2996 113.66 86.3486 113.66 86.3986C113.66 87.5659 112.681 88.5126 111.473 88.5126H111.465H89.7378L91.0859 90.1204C93.8538 93.4207 97.7893 95.0259 102.167 94.6386L102.594 94.5949C102.671 94.5872 102.747 94.5832 102.823 94.5832C103.606 94.5832 104.337 94.9891 104.727 95.6575L107.646 100.649L127.097 88.7706V68.9194Z" fill="black"/>
</svg>
