<svg width="185" height="185" viewBox="0 0 185 185" fill="none" xmlns="http://www.w3.org/2000/svg">
<g clip-path="url(#clip0_1043_955)">
<path d="M128.304 51.1055H53.2852V126.124H128.304V51.1055Z" fill="white"/>
<path d="M134.51 162.923C127.688 165.517 121.269 167.885 114.92 170.455C113.985 170.834 112.954 172.078 112.777 173.061C111.379 181.079 107.08 184.857 98.9786 184.881C94.5135 184.893 90.0603 184.905 85.5951 184.881C78.1454 184.834 73.7158 180.961 72.4485 173.641C72.2827 172.67 71.6195 171.356 70.8259 171C67.5334 169.532 64.0631 168.489 60.7587 167.068C57.5727 165.694 54.4934 164.06 51.414 162.556C43.0996 168.88 37.8647 168.525 30.5334 161.194C27.5487 158.209 24.5167 155.284 21.6032 152.228C16.9485 147.324 16.6406 141.071 20.9754 135.919C22.2427 134.415 22.1124 133.432 21.4255 131.833C19.0686 126.314 16.8064 120.735 14.7338 115.098C14.106 113.392 13.4546 112.693 11.5478 112.492C4.52441 111.781 0.201424 107.008 0.0592989 99.9849C-0.0472952 94.9276 -0.059139 89.8584 0.0592989 84.8011C0.236956 77.8251 4.42966 73.4429 11.3227 72.4599C12.4005 72.3059 13.7626 71.2045 14.2363 70.1859C16.7946 64.6193 19.2107 58.9817 21.461 53.2848C21.8637 52.2544 21.6861 50.5133 21.0465 49.6488C16.7354 43.7979 16.9367 37.5089 21.9703 32.2976C25.4879 28.6616 29.0529 25.061 32.7126 21.5671C37.6396 16.877 43.8221 16.569 49.0215 20.8802C50.4902 22.1001 51.4732 22.0764 53.1313 21.3658C58.6505 18.997 64.2408 16.7941 69.8666 14.7096C71.5484 14.0819 72.1761 13.3475 72.4012 11.4881C73.2895 4.31072 77.873 0.224618 84.9911 0.0824922C90.0484 -0.0241019 95.1176 -0.0359457 100.175 0.0824922C107.044 0.248305 111.474 4.13307 112.386 10.9551C112.646 12.933 113.357 13.7147 115.205 14.4253C120.688 16.5454 126.089 18.9141 131.431 21.4013C133.077 22.1593 134.036 22.1593 135.529 20.9749C141.036 16.569 147.455 16.9244 152.524 21.7803C156.184 25.2861 159.761 28.8629 163.255 32.5226C168.063 37.5326 168.206 43.561 164.06 49.2342C163.421 50.1107 163.243 51.828 163.622 52.8703C165.742 58.6145 168.04 64.2995 170.456 69.9253C170.859 70.8728 172.043 71.9269 173.026 72.1046C181.103 73.5969 184.917 78.0146 184.965 86.2816C184.988 90.6164 185.012 94.9631 184.965 99.2979C184.87 106.925 180.867 111.367 173.381 112.551C172.398 112.705 171.178 113.747 170.752 114.695C168.206 120.273 165.789 125.911 163.539 131.608C163.136 132.638 163.338 134.367 163.977 135.256C168.36 141.284 168.04 147.467 162.793 152.867C159.856 155.888 156.836 158.848 153.851 161.821C147.088 168.572 141.522 168.821 134.51 162.923ZM84.162 173.097H101.028C100.281 165.588 104.569 161.869 110.704 159.547C115.536 157.712 120.771 156.551 125.13 153.921C131.94 149.812 137.897 149.456 143.085 154.715C147.112 150.747 150.985 146.91 154.538 143.416C153.46 141.201 151.482 138.832 151.281 136.322C151.032 133.23 151.849 129.879 152.915 126.906C155.142 120.7 157.878 114.683 160.329 108.56C161.94 104.545 164.866 102.117 168.987 101.11C170.337 100.778 171.759 100.79 173.133 100.636V84.2326C166.962 84.0313 162.402 81.8165 160.152 75.942C158.044 70.4583 155.947 64.9628 153.519 59.6212C150.523 53.0361 149.125 46.7826 155.047 41.6187C151.091 37.6155 147.313 33.7899 143.381 29.8222C137.803 35.7205 131.667 35.0217 124.976 31.0658C121.387 28.9458 117.384 27.2995 113.345 26.2336C105.812 24.2438 100.566 20.6196 100.874 11.8907H84.1502C84.1739 18.4048 81.6156 22.8226 75.5635 24.9663C71.276 26.4823 67.0478 28.2115 62.8195 29.8933C61.3746 30.4737 60.0007 31.2553 58.5795 31.9068C52.3141 34.7966 46.2975 35.5073 41.0507 29.0287C38.8477 31.4448 37.1422 33.4701 35.259 35.3296C33.3285 37.2365 31.2203 38.9775 29.2661 40.7422C35.1643 47.6116 35.3893 51.5201 31.7651 58.8632C29.2779 63.9087 27.6435 69.3805 25.251 74.4852C23.9719 77.2211 22.3138 80.1228 20.0279 81.9231C17.9316 83.5812 14.7574 83.8773 11.8794 84.8248V100.861C20.1701 100.234 23.5337 105.445 26.0327 111.983C28.1646 117.585 30.8058 122.985 32.9495 128.576C33.743 130.637 34.4537 133.159 33.9799 135.196C33.2574 138.323 31.4927 141.201 30.4386 143.57C33.9799 147.301 37.6989 151.209 41.5244 155.236C47.091 149.385 53.155 149.835 59.7757 153.673C63.388 155.769 67.332 157.593 71.3589 158.612C79.0455 160.566 84.47 164.107 84.1857 173.097H84.162Z" fill="#009CB2"/>
<path d="M86.0097 96.3126C92.1684 90.0946 97.581 84.6464 102.994 79.1865C103.846 78.3337 104.664 77.4336 105.587 76.6756C108.158 74.5792 111.225 74.6503 113.428 76.7822C115.667 78.9496 116.057 82.2185 113.783 84.5635C105.99 92.5936 98.0903 100.517 90.0602 108.287C87.6678 110.608 84.6713 110.288 82.267 107.979C78.3586 104.236 74.5093 100.422 70.7904 96.5021C68.3743 93.9438 68.5045 90.7105 70.7786 88.4128C73.0407 86.1269 76.1675 86.0677 78.8797 88.3772C80.1588 89.4669 81.3551 90.6749 82.4802 91.9185C83.6054 93.1621 84.6003 94.5242 86.0452 96.3007L86.0097 96.3126Z" fill="#009CB2"/>
</g>
<defs>
<clipPath id="clip0_1043_955">
<rect width="185" height="184.905" fill="white"/>
</clipPath>
</defs>
</svg>
