<svg width="120" height="116" viewBox="0 0 120 116" fill="none" xmlns="http://www.w3.org/2000/svg">
<path d="M67.3078 10.0089C67.3078 8.10754 66.526 6.28407 65.1345 4.93961C63.7429 3.59515 61.8556 2.83984 59.8876 2.83984C57.9197 2.83984 56.0324 3.59515 54.6408 4.93961C53.2493 6.28407 52.4675 8.10754 52.4675 10.0089H45.0474V21.9573H74.7279V10.0089H67.3078Z" stroke="black" stroke-width="4.94676" stroke-linejoin="round"/>
<path d="M20.3137 17.1788C20.3137 15.9112 20.8349 14.6956 21.7626 13.7993C22.6903 12.903 23.9485 12.3994 25.2605 12.3994H37.6274" stroke="black" stroke-width="4.94676" stroke-linejoin="round"/>
<path d="M99.4619 96.0366V107.985C99.4619 109.253 98.9407 110.468 98.013 111.365C97.0853 112.261 95.8271 112.764 94.5151 112.764H25.2605C23.9485 112.764 22.6903 112.261 21.7626 111.365C20.8349 110.468 20.3137 109.253 20.3137 107.985" stroke="black" stroke-width="4.94676" stroke-linejoin="round"/>
<path d="M82.1482 12.3994H94.5151C95.8271 12.3994 97.0853 12.903 98.013 13.7993C98.9407 14.6956 99.4619 15.9112 99.4619 17.1788V64.9724" stroke="black" stroke-width="4.94676" stroke-linejoin="round"/>
<path d="M42.574 33.9062H77.2013V67.3618H42.574V33.9062Z" stroke="black" stroke-width="4.94676" stroke-linejoin="round"/>
<path d="M54.9409 33.9062V48.2443H64.8344V33.9062" stroke="black" stroke-width="4.94676" stroke-linejoin="round"/>
<path d="M40.1006 76.9194H45.0473" stroke="black" stroke-width="4.94676" stroke-linejoin="round"/>
<path d="M49.9941 76.9194H79.6747" stroke="black" stroke-width="4.94676" stroke-linejoin="round"/>
<path d="M40.1006 86.479H79.6747" stroke="black" stroke-width="4.94676" stroke-linejoin="round"/>
<path d="M77.1838 96.8311L110.157 64.9737L116.751 71.3449L83.7781 103.202L77.1838 96.8311Z" stroke="black" stroke-width="4.94601" stroke-linejoin="round"/>
<path d="M84.6216 103.206H77.2014V96.0366" stroke="black" stroke-width="4.94676" stroke-linejoin="round"/>
<path d="M27.7338 24.3486H7.94676C5.21474 24.3486 3 26.4884 3 29.128V38.6867C3 41.3263 5.21474 43.4661 7.94676 43.4661H27.7338C30.4658 43.4661 32.6806 41.3263 32.6806 38.6867V29.128C32.6806 26.4884 30.4658 24.3486 27.7338 24.3486Z" stroke="black" stroke-width="4.94676" stroke-linejoin="round"/>
<path d="M10.4202 33.9062H25.2604" stroke="black" stroke-width="4.94676" stroke-linejoin="round"/>
<path d="M27.7338 81.7002H7.94676C5.21474 81.7002 3 83.84 3 86.4796V96.0383C3 98.6779 5.21474 100.818 7.94676 100.818H27.7338C30.4658 100.818 32.6806 98.6779 32.6806 96.0383V86.4796C32.6806 83.84 30.4658 81.7002 27.7338 81.7002Z" stroke="black" stroke-width="4.94676" stroke-linejoin="round"/>
<path d="M10.4202 91.2578H25.2604" stroke="black" stroke-width="4.94676" stroke-linejoin="round"/>
<path d="M17.8403 43.4658V48.2452L25.2605 55.4142" stroke="black" stroke-width="4.94676" stroke-linejoin="round"/>
<path d="M17.8403 81.6994V76.92L25.2605 69.751" stroke="black" stroke-width="4.94676" stroke-linejoin="round"/>
</svg>
